<svg xmlns="http://www.w3.org/2000/svg" width="18.17" height="17.716" viewBox="0 0 18.17 17.716">
  <path id="aim_1_" data-name="aim (1)" d="M9.085,5.637a3.222,3.222,0,1,0,3.3,3.221A3.262,3.262,0,0,0,9.085,5.637Zm7.384,2.416A7.338,7.338,0,0,0,9.911,1.659V0H8.259V1.659A7.338,7.338,0,0,0,1.7,8.053H0V9.663H1.7a7.338,7.338,0,0,0,6.558,6.394v1.659H9.911V16.057a7.338,7.338,0,0,0,6.558-6.394h1.7V8.053h-1.7ZM9.085,14.5A5.712,5.712,0,0,1,3.3,8.858,5.712,5.712,0,0,1,9.085,3.221a5.712,5.712,0,0,1,5.781,5.637A5.712,5.712,0,0,1,9.085,14.5Z" fill="#181c02"/>
</svg>
