<svg xmlns="http://www.w3.org/2000/svg" width="20.202" height="23.308" viewBox="0 0 20.202 23.308">
  <g id="Group_9315" data-name="Group 9315" transform="translate(-0.36 -0.4)">
    <path id="Path_27699" data-name="Path 27699" d="M18.665,43.368l-16.4.065A1.289,1.289,0,0,1,.97,42.012l1.485-13.95A1.288,1.288,0,0,1,3.747,26.9H17.2a1.3,1.3,0,0,1,1.292,1.162l1.464,13.907A1.307,1.307,0,0,1,18.665,43.368Z" transform="translate(0 -20.324)" fill="none" stroke="#a11414" stroke-miterlimit="10" stroke-width="1.2"/>
    <path id="Path_27700" data-name="Path 27700" d="M33.54,6.059C33.54,3.26,31.581,1,29.17,1S24.8,3.26,24.8,6.059a3.488,3.488,0,0,0,.022.474h8.7C33.519,6.382,33.54,6.21,33.54,6.059Z" transform="translate(-18.706)" fill="none" stroke="#a11414" stroke-miterlimit="10" stroke-width="1.2"/>
  </g>
</svg>
